<?xml version="1.0" encoding="UTF-8" standalone="no"?>
<svg width="117px" height="43px" viewBox="0 0 117 43" version="1.1" xmlns="http://www.w3.org/2000/svg" xmlns:xlink="http://www.w3.org/1999/xlink">
    <!-- Generator: Sketch 48.1 (47250) - http://www.bohemiancoding.com/sketch -->
    <title>SIA-logo 紫</title>
    <desc>Created with Sketch.</desc>
    <defs></defs>
    <g id="Artboard" stroke="none" stroke-width="1" fill="none" fill-rule="evenodd" transform="translate(-50.000000, -1058.000000)">
        <g id="SIA-logo-紫" transform="translate(50.000000, 1057.000000)" fill-rule="nonzero">
            <g id="Group-4">
                <polygon id="Shape" fill="#EAE4F0" points="36 15.8 32.2 19.6 35 22.3 21.3 36 7.6 22.3 10.3 19.6 6.5 15.8 0 22.3 21.3 43.6 42.6 22.3"></polygon>
                <polygon id="Shape" fill="#6E4195" points="30.1 9.8 21.3 18.5 12.5 9.8 8.7 13.6 21.3 26.1 33.9 13.6"></polygon>
                <rect id="Rectangle-path" fill="#EAE4F0" transform="translate(21.339380, 5.408310) rotate(-45.000000) translate(-21.339380, -5.408310) " x="18.1894102" y="2.25834021" width="6.29993958" height="6.29993958"></rect>
            </g>
            <g id="Group" transform="translate(54.000000, 9.000000)" fill="#6E4195">
                <path d="M13,10.4 C9,9.2 7.8,8.7 7.8,7.5 C7.8,6.6 8.9,5.3 11.3,5.3 C13,5.3 14.9,6 16.6,7.2 L17.8,8.1 L21.5,4 L20.3,3 C18,1.1 14.7,0 11.1,0 C5.7,0 1.6,3.2 1.6,7.5 C1.6,13.1 7.1,14.6 10.1,15.4 C13.8,16.4 15.8,17.2 15.8,18.4 C15.8,20.2 13.6,21 11.5,21 C9.3,21 6.4,20.1 4.8,18.9 L3.4,17.9 L0,22.7 L1.4,23.6 C4.2,25.4 7.9,26.5 11.4,26.5 C17.6,26.5 22,23.1 22,18.3 C21.9,13 16.1,11.3 13,10.4 Z" id="Shape"></path>
                <rect id="Rectangle-path" x="25.7" y="0.8" width="5.9" height="24.2"></rect>
                <path d="M51.2,0.8 L46.2,0.8 L34.5,25.1 L41,25.1 L43.6,19.5 L53.8,19.5 L56.4,25.1 L62.8,25.1 L51.2,0.8 Z M51.4,14.4 L45.9,14.4 L48.7,8.5 L51.4,14.4 Z" id="Shape"></path>
            </g>
        </g>
    </g>
</svg>